<svg width="39" height="39" viewBox="0 0 39 39" fill="none" xmlns="http://www.w3.org/2000/svg">
<path fill-rule="evenodd" clip-rule="evenodd" d="M19.5 4.875H28.6511L30.8344 12.5165C32.174 10.8308 34.242 9.75 36.5625 9.75H39V17.0625H32.1333L33.5983 22.1896C36.7102 23.0297 39 25.8724 39 29.25C39 33.2887 35.7262 36.5625 31.6875 36.5625C28.5036 36.5625 25.7948 34.5277 24.7911 31.6875H14.2089C13.2051 34.5277 10.4964 36.5625 7.3125 36.5625C3.27393 36.5625 0 33.2887 0 29.25V21.9375C0 17.8989 3.27393 14.625 7.3125 14.625H14.625V26.8125H24.375V9.75H19.5V4.875ZM31.6875 31.6875C30.3413 31.6875 29.25 30.5962 29.25 29.25C29.25 27.9038 30.3413 26.8125 31.6875 26.8125C33.0337 26.8125 34.125 27.9038 34.125 29.25C34.125 30.5962 33.0337 31.6875 31.6875 31.6875Z" fill="#030708"/>
</svg>
